<svg xmlns="http://www.w3.org/2000/svg" viewBox="0 0 32 32">
  <rect width="32" height="32" rx="6" fill="#0f172a"/>
  <path d="M16 7 C12 7 8 9 7 13 C6 17 6 20 8 23 C10 26 13 28 16 28 C19 28 22 26 24 23 C26 20 26 17 25 13 C24 9 20 7 16 7Z"
        fill="none" stroke="#6366f1" stroke-width="1.3" stroke-linecap="round"/>
  <line x1="16" y1="7" x2="16" y2="28" stroke="#6366f1" stroke-width="0.7" stroke-dasharray="2,2" opacity="0.3"/>
  <path d="M7 15 C8 17 8 20 7 22" fill="none" stroke="#6366f1" stroke-width="0.8" opacity="0.4"/>
  <path d="M25 15 C24 17 24 20 25 22" fill="none" stroke="#6366f1" stroke-width="0.8" opacity="0.4"/>
  <path d="M9 11 C10 13 10 16 8 18" fill="none" stroke="#6366f1" stroke-width="0.7" opacity="0.35"/>
  <path d="M23 11 C22 13 22 16 24 18" fill="none" stroke="#6366f1" stroke-width="0.7" opacity="0.35"/>
  <circle cx="16" cy="17" r="2" fill="#34d399"/>
  <circle cx="11" cy="13" r="1.2" fill="#34d399" opacity="0.8"/>
  <circle cx="21" cy="13" r="1.2" fill="#34d399" opacity="0.8"/>
  <circle cx="10" cy="20" r="1" fill="#818cf8" opacity="0.9"/>
  <circle cx="22" cy="20" r="1" fill="#818cf8" opacity="0.9"/>
  <circle cx="13" cy="24" r="1" fill="#34d399" opacity="0.8"/>
  <circle cx="19" cy="24" r="1" fill="#34d399" opacity="0.8"/>
  <line x1="16" y1="17" x2="11" y2="13" stroke="#34d399" stroke-width="0.6" opacity="0.6"/>
  <line x1="16" y1="17" x2="21" y2="13" stroke="#34d399" stroke-width="0.6" opacity="0.6"/>
  <line x1="16" y1="17" x2="10" y2="20" stroke="#818cf8" stroke-width="0.6" opacity="0.5"/>
  <line x1="16" y1="17" x2="22" y2="20" stroke="#818cf8" stroke-width="0.6" opacity="0.5"/>
  <line x1="16" y1="17" x2="13" y2="24" stroke="#34d399" stroke-width="0.5" opacity="0.4"/>
  <line x1="16" y1="17" x2="19" y2="24" stroke="#34d399" stroke-width="0.5" opacity="0.4"/>
</svg>
